# xmcd
#
# Track frame offsets:
#	150
#	10498
#	21186
#	32024
#	42476
#	53290
#	64366
#	76274
#	86461
#	96628
#	107307
#	117757
#	127900
#	138143
#	147929
#	158660
#	168569
#	179755
#	195391
#	205744
#	217250
#	228199
#	237810
#	248433
#
# Disc length: 3449 seconds
#
# Revision: 1
# Processed by: cddbd v1.5.2PL0 Copyright (c) Steve Scherf et al.
# Submitted via: EZCDAudioConverter 8.5.0.1
#
DISCID=3c0d7718
DTITLE=Hal Blaine - Psychedelic Percussion
DYEAR=2016
DGENRE=
TTITLE0=Love-In (December)
TTITLE1=Freaky (January)
TTITLE2=Flashes (February)
TTITLE3=Kaleidoscope (March)
TTITLE4=Hallucinations (April)
TTITLE5=Flower Society (May)
TTITLE6=Trippin' Out (June)
TTITLE7=Tune In-Turn On (July)
TTITLE8=Vibrations (August)
TTITLE9=Soulful (September)
TTITLE10=Inner-Space (October)
TTITLE11=Wiggy (November)
TTITLE12=Challenger ll
TTITLE13=Green Monster
TTITLE14=Nashville Coupe
TTITLE15=Mr. Eliminator
TTITLE16=Pop The Chute
TTITLE17=Deuces, T's, Roadsters and Drums
TTITLE18=Gear Change
TTITLE19=The Phantom Driver
TTITLE20=Gear Stripper
TTITLE21=Big T
TTITLE22=The Traps
TTITLE23=Drum Brakes
EXTD=
EXTT0=
EXTT1=
EXTT2=
EXTT3=
EXTT4=
EXTT5=
EXTT6=
EXTT7=
EXTT8=
EXTT9=
EXTT10=
EXTT11=
EXTT12=
EXTT13=
EXTT14=
EXTT15=
EXTT16=
EXTT17=
EXTT18=
EXTT19=
EXTT20=
EXTT21=
EXTT22=
EXTT23=
PLAYORDER=
